<mxfile host="app.diagrams.net" agent="Mozilla/5.0 (Windows NT 10.0; Win64; x64) AppleWebKit/537.36 (KHTML, like Gecko) Chrome/140.0.0.0 Safari/537.36 Edg/140.0.0.0" version="28.2.3">
  <diagram name="第 1 页" id="bH4IBH7lwbC2pDa4tC6R">
    <mxGraphModel dx="1182" dy="662" grid="0" gridSize="10" guides="1" tooltips="1" connect="1" arrows="1" fold="1" page="1" pageScale="1" pageWidth="827" pageHeight="1169" math="0" shadow="0">
      <root>
        <mxCell id="0" />
        <mxCell id="1" parent="0" />
        <mxCell id="EeWhgjesMD8h8m6Kg0Re-1" value="" style="endArrow=none;dashed=1;html=1;rounded=0;" edge="1" parent="1">
          <mxGeometry width="50" height="50" relative="1" as="geometry">
            <mxPoint x="120" y="480" as="sourcePoint" />
            <mxPoint x="120" y="320" as="targetPoint" />
          </mxGeometry>
        </mxCell>
        <mxCell id="EeWhgjesMD8h8m6Kg0Re-3" value="" style="endArrow=none;dashed=1;html=1;rounded=0;" edge="1" parent="1">
          <mxGeometry width="50" height="50" relative="1" as="geometry">
            <mxPoint x="190" y="480" as="sourcePoint" />
            <mxPoint x="190" y="320" as="targetPoint" />
          </mxGeometry>
        </mxCell>
        <mxCell id="EeWhgjesMD8h8m6Kg0Re-4" value="" style="endArrow=none;dashed=1;html=1;rounded=0;" edge="1" parent="1">
          <mxGeometry width="50" height="50" relative="1" as="geometry">
            <mxPoint x="260" y="480" as="sourcePoint" />
            <mxPoint x="260" y="320" as="targetPoint" />
          </mxGeometry>
        </mxCell>
        <mxCell id="EeWhgjesMD8h8m6Kg0Re-6" value="&lt;font style=&quot;font-size: 18px;&quot;&gt;rank0&lt;/font&gt;" style="text;html=1;align=center;verticalAlign=middle;resizable=0;points=[];autosize=1;strokeColor=none;fillColor=none;" vertex="1" parent="1">
          <mxGeometry x="120" y="275" width="70" height="40" as="geometry" />
        </mxCell>
        <mxCell id="EeWhgjesMD8h8m6Kg0Re-7" value="&lt;font style=&quot;font-size: 18px;&quot;&gt;rank1&lt;/font&gt;" style="text;html=1;align=center;verticalAlign=middle;resizable=0;points=[];autosize=1;strokeColor=none;fillColor=none;" vertex="1" parent="1">
          <mxGeometry x="190" y="275" width="70" height="40" as="geometry" />
        </mxCell>
        <mxCell id="EeWhgjesMD8h8m6Kg0Re-8" value="&lt;font style=&quot;font-size: 18px;&quot;&gt;rank2&lt;/font&gt;" style="text;html=1;align=center;verticalAlign=middle;resizable=0;points=[];autosize=1;strokeColor=none;fillColor=none;" vertex="1" parent="1">
          <mxGeometry x="260" y="275" width="70" height="40" as="geometry" />
        </mxCell>
        <mxCell id="EeWhgjesMD8h8m6Kg0Re-9" value="&lt;font style=&quot;font-size: 18px;&quot;&gt;rank3&lt;/font&gt;" style="text;html=1;align=center;verticalAlign=middle;resizable=0;points=[];autosize=1;strokeColor=none;fillColor=none;" vertex="1" parent="1">
          <mxGeometry x="330" y="275" width="70" height="40" as="geometry" />
        </mxCell>
        <mxCell id="EeWhgjesMD8h8m6Kg0Re-11" value="" style="endArrow=none;dashed=1;html=1;rounded=0;" edge="1" parent="1">
          <mxGeometry width="50" height="50" relative="1" as="geometry">
            <mxPoint x="330" y="480" as="sourcePoint" />
            <mxPoint x="330" y="320" as="targetPoint" />
          </mxGeometry>
        </mxCell>
        <mxCell id="EeWhgjesMD8h8m6Kg0Re-12" value="" style="endArrow=none;dashed=1;html=1;rounded=0;" edge="1" parent="1">
          <mxGeometry width="50" height="50" relative="1" as="geometry">
            <mxPoint x="400" y="480" as="sourcePoint" />
            <mxPoint x="400" y="320" as="targetPoint" />
          </mxGeometry>
        </mxCell>
        <mxCell id="EeWhgjesMD8h8m6Kg0Re-13" value="Tensor1" style="rounded=0;whiteSpace=wrap;html=1;fillColor=#e1d5e7;strokeColor=#9673a6;" vertex="1" parent="1">
          <mxGeometry x="130" y="330" width="50" height="140" as="geometry" />
        </mxCell>
        <mxCell id="EeWhgjesMD8h8m6Kg0Re-17" value="" style="endArrow=none;dashed=1;html=1;dashPattern=1 3;strokeWidth=2;rounded=0;exitX=0;exitY=0.25;exitDx=0;exitDy=0;entryX=1;entryY=0.25;entryDx=0;entryDy=0;opacity=40;" edge="1" parent="1">
          <mxGeometry width="50" height="50" relative="1" as="geometry">
            <mxPoint x="130" y="360" as="sourcePoint" />
            <mxPoint x="180" y="360" as="targetPoint" />
          </mxGeometry>
        </mxCell>
        <mxCell id="EeWhgjesMD8h8m6Kg0Re-18" value="" style="endArrow=none;dashed=1;html=1;dashPattern=1 3;strokeWidth=2;rounded=0;exitX=0;exitY=0.25;exitDx=0;exitDy=0;entryX=1;entryY=0.25;entryDx=0;entryDy=0;opacity=40;" edge="1" parent="1">
          <mxGeometry width="50" height="50" relative="1" as="geometry">
            <mxPoint x="130" y="399.76" as="sourcePoint" />
            <mxPoint x="180" y="399.76" as="targetPoint" />
          </mxGeometry>
        </mxCell>
        <mxCell id="EeWhgjesMD8h8m6Kg0Re-19" value="" style="endArrow=none;dashed=1;html=1;dashPattern=1 3;strokeWidth=2;rounded=0;exitX=0;exitY=0.25;exitDx=0;exitDy=0;entryX=1;entryY=0.25;entryDx=0;entryDy=0;opacity=40;" edge="1" parent="1">
          <mxGeometry width="50" height="50" relative="1" as="geometry">
            <mxPoint x="130" y="440" as="sourcePoint" />
            <mxPoint x="180" y="440" as="targetPoint" />
          </mxGeometry>
        </mxCell>
        <mxCell id="EeWhgjesMD8h8m6Kg0Re-32" value="Tensor2" style="rounded=0;whiteSpace=wrap;html=1;fillColor=#fff2cc;strokeColor=#d6b656;" vertex="1" parent="1">
          <mxGeometry x="200" y="330" width="50" height="140" as="geometry" />
        </mxCell>
        <mxCell id="EeWhgjesMD8h8m6Kg0Re-33" value="" style="endArrow=none;dashed=1;html=1;dashPattern=1 3;strokeWidth=2;rounded=0;exitX=0;exitY=0.25;exitDx=0;exitDy=0;entryX=1;entryY=0.25;entryDx=0;entryDy=0;opacity=40;" edge="1" parent="1">
          <mxGeometry width="50" height="50" relative="1" as="geometry">
            <mxPoint x="200" y="360" as="sourcePoint" />
            <mxPoint x="250" y="360" as="targetPoint" />
          </mxGeometry>
        </mxCell>
        <mxCell id="EeWhgjesMD8h8m6Kg0Re-34" value="" style="endArrow=none;dashed=1;html=1;dashPattern=1 3;strokeWidth=2;rounded=0;exitX=0;exitY=0.25;exitDx=0;exitDy=0;entryX=1;entryY=0.25;entryDx=0;entryDy=0;opacity=40;" edge="1" parent="1">
          <mxGeometry width="50" height="50" relative="1" as="geometry">
            <mxPoint x="200" y="399.76" as="sourcePoint" />
            <mxPoint x="250" y="399.76" as="targetPoint" />
          </mxGeometry>
        </mxCell>
        <mxCell id="EeWhgjesMD8h8m6Kg0Re-35" value="" style="endArrow=none;dashed=1;html=1;dashPattern=1 3;strokeWidth=2;rounded=0;exitX=0;exitY=0.25;exitDx=0;exitDy=0;entryX=1;entryY=0.25;entryDx=0;entryDy=0;opacity=40;" edge="1" parent="1">
          <mxGeometry width="50" height="50" relative="1" as="geometry">
            <mxPoint x="200" y="440" as="sourcePoint" />
            <mxPoint x="250" y="440" as="targetPoint" />
          </mxGeometry>
        </mxCell>
        <mxCell id="EeWhgjesMD8h8m6Kg0Re-36" value="Tensor3" style="rounded=0;whiteSpace=wrap;html=1;fillColor=#f8cecc;strokeColor=#b85450;" vertex="1" parent="1">
          <mxGeometry x="270" y="330" width="50" height="140" as="geometry" />
        </mxCell>
        <mxCell id="EeWhgjesMD8h8m6Kg0Re-37" value="" style="endArrow=none;dashed=1;html=1;dashPattern=1 3;strokeWidth=2;rounded=0;exitX=0;exitY=0.25;exitDx=0;exitDy=0;entryX=1;entryY=0.25;entryDx=0;entryDy=0;opacity=40;" edge="1" parent="1">
          <mxGeometry width="50" height="50" relative="1" as="geometry">
            <mxPoint x="270" y="360" as="sourcePoint" />
            <mxPoint x="320" y="360" as="targetPoint" />
          </mxGeometry>
        </mxCell>
        <mxCell id="EeWhgjesMD8h8m6Kg0Re-38" value="" style="endArrow=none;dashed=1;html=1;dashPattern=1 3;strokeWidth=2;rounded=0;exitX=0;exitY=0.25;exitDx=0;exitDy=0;entryX=1;entryY=0.25;entryDx=0;entryDy=0;opacity=40;" edge="1" parent="1">
          <mxGeometry width="50" height="50" relative="1" as="geometry">
            <mxPoint x="270" y="399.76" as="sourcePoint" />
            <mxPoint x="320" y="399.76" as="targetPoint" />
          </mxGeometry>
        </mxCell>
        <mxCell id="EeWhgjesMD8h8m6Kg0Re-39" value="" style="endArrow=none;dashed=1;html=1;dashPattern=1 3;strokeWidth=2;rounded=0;exitX=0;exitY=0.25;exitDx=0;exitDy=0;entryX=1;entryY=0.25;entryDx=0;entryDy=0;opacity=40;" edge="1" parent="1">
          <mxGeometry width="50" height="50" relative="1" as="geometry">
            <mxPoint x="270" y="440" as="sourcePoint" />
            <mxPoint x="320" y="440" as="targetPoint" />
          </mxGeometry>
        </mxCell>
        <mxCell id="EeWhgjesMD8h8m6Kg0Re-40" value="Tensor4" style="rounded=0;whiteSpace=wrap;html=1;fillColor=#d5e8d4;strokeColor=#82b366;" vertex="1" parent="1">
          <mxGeometry x="340" y="330" width="50" height="140" as="geometry" />
        </mxCell>
        <mxCell id="EeWhgjesMD8h8m6Kg0Re-41" value="" style="endArrow=none;dashed=1;html=1;dashPattern=1 3;strokeWidth=2;rounded=0;exitX=0;exitY=0.25;exitDx=0;exitDy=0;entryX=1;entryY=0.25;entryDx=0;entryDy=0;opacity=40;" edge="1" parent="1">
          <mxGeometry width="50" height="50" relative="1" as="geometry">
            <mxPoint x="340" y="360" as="sourcePoint" />
            <mxPoint x="390" y="360" as="targetPoint" />
          </mxGeometry>
        </mxCell>
        <mxCell id="EeWhgjesMD8h8m6Kg0Re-42" value="" style="endArrow=none;dashed=1;html=1;dashPattern=1 3;strokeWidth=2;rounded=0;exitX=0;exitY=0.25;exitDx=0;exitDy=0;entryX=1;entryY=0.25;entryDx=0;entryDy=0;opacity=40;" edge="1" parent="1">
          <mxGeometry width="50" height="50" relative="1" as="geometry">
            <mxPoint x="340" y="399.76" as="sourcePoint" />
            <mxPoint x="390" y="399.76" as="targetPoint" />
          </mxGeometry>
        </mxCell>
        <mxCell id="EeWhgjesMD8h8m6Kg0Re-43" value="" style="endArrow=none;dashed=1;html=1;dashPattern=1 3;strokeWidth=2;rounded=0;exitX=0;exitY=0.25;exitDx=0;exitDy=0;entryX=1;entryY=0.25;entryDx=0;entryDy=0;opacity=40;" edge="1" parent="1">
          <mxGeometry width="50" height="50" relative="1" as="geometry">
            <mxPoint x="340" y="440" as="sourcePoint" />
            <mxPoint x="390" y="440" as="targetPoint" />
          </mxGeometry>
        </mxCell>
        <mxCell id="EeWhgjesMD8h8m6Kg0Re-44" value="" style="shape=flexArrow;endArrow=classic;html=1;rounded=0;fillColor=#bac8d3;strokeColor=#23445d;" edge="1" parent="1">
          <mxGeometry width="50" height="50" relative="1" as="geometry">
            <mxPoint x="410" y="399.66" as="sourcePoint" />
            <mxPoint x="470" y="399.66" as="targetPoint" />
          </mxGeometry>
        </mxCell>
        <mxCell id="EeWhgjesMD8h8m6Kg0Re-45" value="" style="endArrow=none;dashed=1;html=1;rounded=0;" edge="1" parent="1">
          <mxGeometry width="50" height="50" relative="1" as="geometry">
            <mxPoint x="480" y="480" as="sourcePoint" />
            <mxPoint x="480" y="320" as="targetPoint" />
          </mxGeometry>
        </mxCell>
        <mxCell id="EeWhgjesMD8h8m6Kg0Re-46" value="" style="endArrow=none;dashed=1;html=1;rounded=0;" edge="1" parent="1">
          <mxGeometry width="50" height="50" relative="1" as="geometry">
            <mxPoint x="550" y="480" as="sourcePoint" />
            <mxPoint x="550" y="320" as="targetPoint" />
          </mxGeometry>
        </mxCell>
        <mxCell id="EeWhgjesMD8h8m6Kg0Re-47" value="" style="endArrow=none;dashed=1;html=1;rounded=0;" edge="1" parent="1">
          <mxGeometry width="50" height="50" relative="1" as="geometry">
            <mxPoint x="620" y="480" as="sourcePoint" />
            <mxPoint x="620" y="320" as="targetPoint" />
          </mxGeometry>
        </mxCell>
        <mxCell id="EeWhgjesMD8h8m6Kg0Re-48" value="&lt;font style=&quot;font-size: 18px;&quot;&gt;rank0&lt;/font&gt;" style="text;html=1;align=center;verticalAlign=middle;resizable=0;points=[];autosize=1;strokeColor=none;fillColor=none;" vertex="1" parent="1">
          <mxGeometry x="480" y="275" width="70" height="40" as="geometry" />
        </mxCell>
        <mxCell id="EeWhgjesMD8h8m6Kg0Re-49" value="&lt;font style=&quot;font-size: 18px;&quot;&gt;rank1&lt;/font&gt;" style="text;html=1;align=center;verticalAlign=middle;resizable=0;points=[];autosize=1;strokeColor=none;fillColor=none;" vertex="1" parent="1">
          <mxGeometry x="550" y="275" width="70" height="40" as="geometry" />
        </mxCell>
        <mxCell id="EeWhgjesMD8h8m6Kg0Re-50" value="&lt;font style=&quot;font-size: 18px;&quot;&gt;rank2&lt;/font&gt;" style="text;html=1;align=center;verticalAlign=middle;resizable=0;points=[];autosize=1;strokeColor=none;fillColor=none;" vertex="1" parent="1">
          <mxGeometry x="620" y="275" width="70" height="40" as="geometry" />
        </mxCell>
        <mxCell id="EeWhgjesMD8h8m6Kg0Re-51" value="&lt;font style=&quot;font-size: 18px;&quot;&gt;rank3&lt;/font&gt;" style="text;html=1;align=center;verticalAlign=middle;resizable=0;points=[];autosize=1;strokeColor=none;fillColor=none;" vertex="1" parent="1">
          <mxGeometry x="690" y="275" width="70" height="40" as="geometry" />
        </mxCell>
        <mxCell id="EeWhgjesMD8h8m6Kg0Re-52" value="" style="endArrow=none;dashed=1;html=1;rounded=0;" edge="1" parent="1">
          <mxGeometry width="50" height="50" relative="1" as="geometry">
            <mxPoint x="690" y="480" as="sourcePoint" />
            <mxPoint x="690" y="320" as="targetPoint" />
          </mxGeometry>
        </mxCell>
        <mxCell id="EeWhgjesMD8h8m6Kg0Re-53" value="" style="endArrow=none;dashed=1;html=1;rounded=0;" edge="1" parent="1">
          <mxGeometry width="50" height="50" relative="1" as="geometry">
            <mxPoint x="760" y="480" as="sourcePoint" />
            <mxPoint x="760" y="320" as="targetPoint" />
          </mxGeometry>
        </mxCell>
        <mxCell id="EeWhgjesMD8h8m6Kg0Re-54" value="A0" style="rounded=0;whiteSpace=wrap;html=1;fillColor=#e1d5e7;strokeColor=#9673a6;" vertex="1" parent="1">
          <mxGeometry x="490" y="330" width="50" height="30" as="geometry" />
        </mxCell>
        <mxCell id="EeWhgjesMD8h8m6Kg0Re-70" value="split" style="text;html=1;align=center;verticalAlign=middle;resizable=0;points=[];autosize=1;strokeColor=none;fillColor=none;" vertex="1" parent="1">
          <mxGeometry x="420" y="350" width="40" height="30" as="geometry" />
        </mxCell>
        <mxCell id="EeWhgjesMD8h8m6Kg0Re-71" value="B0" style="rounded=0;whiteSpace=wrap;html=1;fillColor=#e1d5e7;strokeColor=#9673a6;" vertex="1" parent="1">
          <mxGeometry x="490" y="370" width="50" height="30" as="geometry" />
        </mxCell>
        <mxCell id="EeWhgjesMD8h8m6Kg0Re-72" value="C0" style="rounded=0;whiteSpace=wrap;html=1;fillColor=#e1d5e7;strokeColor=#9673a6;" vertex="1" parent="1">
          <mxGeometry x="490" y="410" width="50" height="30" as="geometry" />
        </mxCell>
        <mxCell id="EeWhgjesMD8h8m6Kg0Re-73" value="D0" style="rounded=0;whiteSpace=wrap;html=1;fillColor=#e1d5e7;strokeColor=#9673a6;" vertex="1" parent="1">
          <mxGeometry x="490" y="450" width="50" height="30" as="geometry" />
        </mxCell>
        <mxCell id="EeWhgjesMD8h8m6Kg0Re-74" value="A1" style="rounded=0;whiteSpace=wrap;html=1;fillColor=#fff2cc;strokeColor=#d6b656;" vertex="1" parent="1">
          <mxGeometry x="560" y="330" width="50" height="30" as="geometry" />
        </mxCell>
        <mxCell id="EeWhgjesMD8h8m6Kg0Re-75" value="B1" style="rounded=0;whiteSpace=wrap;html=1;fillColor=#fff2cc;strokeColor=#d6b656;" vertex="1" parent="1">
          <mxGeometry x="560" y="370" width="50" height="30" as="geometry" />
        </mxCell>
        <mxCell id="EeWhgjesMD8h8m6Kg0Re-76" value="C1" style="rounded=0;whiteSpace=wrap;html=1;fillColor=#fff2cc;strokeColor=#d6b656;" vertex="1" parent="1">
          <mxGeometry x="560" y="410" width="50" height="30" as="geometry" />
        </mxCell>
        <mxCell id="EeWhgjesMD8h8m6Kg0Re-77" value="D1" style="rounded=0;whiteSpace=wrap;html=1;fillColor=#fff2cc;strokeColor=#d6b656;" vertex="1" parent="1">
          <mxGeometry x="560" y="450" width="50" height="30" as="geometry" />
        </mxCell>
        <mxCell id="EeWhgjesMD8h8m6Kg0Re-78" value="A2" style="rounded=0;whiteSpace=wrap;html=1;fillColor=#f8cecc;strokeColor=#b85450;" vertex="1" parent="1">
          <mxGeometry x="630" y="330" width="50" height="30" as="geometry" />
        </mxCell>
        <mxCell id="EeWhgjesMD8h8m6Kg0Re-79" value="B2" style="rounded=0;whiteSpace=wrap;html=1;fillColor=#f8cecc;strokeColor=#b85450;" vertex="1" parent="1">
          <mxGeometry x="630" y="370" width="50" height="30" as="geometry" />
        </mxCell>
        <mxCell id="EeWhgjesMD8h8m6Kg0Re-80" value="C2" style="rounded=0;whiteSpace=wrap;html=1;fillColor=#f8cecc;strokeColor=#b85450;" vertex="1" parent="1">
          <mxGeometry x="630" y="410" width="50" height="30" as="geometry" />
        </mxCell>
        <mxCell id="EeWhgjesMD8h8m6Kg0Re-81" value="D2" style="rounded=0;whiteSpace=wrap;html=1;fillColor=#f8cecc;strokeColor=#b85450;" vertex="1" parent="1">
          <mxGeometry x="630" y="450" width="50" height="30" as="geometry" />
        </mxCell>
        <mxCell id="EeWhgjesMD8h8m6Kg0Re-82" value="A3" style="rounded=0;whiteSpace=wrap;html=1;fillColor=#d5e8d4;strokeColor=#82b366;" vertex="1" parent="1">
          <mxGeometry x="700" y="330" width="50" height="30" as="geometry" />
        </mxCell>
        <mxCell id="EeWhgjesMD8h8m6Kg0Re-83" value="B3" style="rounded=0;whiteSpace=wrap;html=1;fillColor=#d5e8d4;strokeColor=#82b366;" vertex="1" parent="1">
          <mxGeometry x="700" y="370" width="50" height="30" as="geometry" />
        </mxCell>
        <mxCell id="EeWhgjesMD8h8m6Kg0Re-84" value="C3" style="rounded=0;whiteSpace=wrap;html=1;fillColor=#d5e8d4;strokeColor=#82b366;" vertex="1" parent="1">
          <mxGeometry x="700" y="410" width="50" height="30" as="geometry" />
        </mxCell>
        <mxCell id="EeWhgjesMD8h8m6Kg0Re-85" value="D3" style="rounded=0;whiteSpace=wrap;html=1;fillColor=#d5e8d4;strokeColor=#82b366;" vertex="1" parent="1">
          <mxGeometry x="700" y="450" width="50" height="30" as="geometry" />
        </mxCell>
        <mxCell id="EeWhgjesMD8h8m6Kg0Re-87" value="" style="endArrow=none;dashed=1;html=1;rounded=0;" edge="1" parent="1">
          <mxGeometry width="50" height="50" relative="1" as="geometry">
            <mxPoint x="123.30999999999999" y="725" as="sourcePoint" />
            <mxPoint x="123.30999999999999" y="565" as="targetPoint" />
          </mxGeometry>
        </mxCell>
        <mxCell id="EeWhgjesMD8h8m6Kg0Re-88" value="" style="endArrow=none;dashed=1;html=1;rounded=0;" edge="1" parent="1">
          <mxGeometry width="50" height="50" relative="1" as="geometry">
            <mxPoint x="193.31" y="725" as="sourcePoint" />
            <mxPoint x="193.31" y="565" as="targetPoint" />
          </mxGeometry>
        </mxCell>
        <mxCell id="EeWhgjesMD8h8m6Kg0Re-89" value="" style="endArrow=none;dashed=1;html=1;rounded=0;" edge="1" parent="1">
          <mxGeometry width="50" height="50" relative="1" as="geometry">
            <mxPoint x="263.30999999999995" y="725" as="sourcePoint" />
            <mxPoint x="263.30999999999995" y="565" as="targetPoint" />
          </mxGeometry>
        </mxCell>
        <mxCell id="EeWhgjesMD8h8m6Kg0Re-90" value="&lt;font style=&quot;font-size: 18px;&quot;&gt;rank0&lt;/font&gt;" style="text;html=1;align=center;verticalAlign=middle;resizable=0;points=[];autosize=1;strokeColor=none;fillColor=none;" vertex="1" parent="1">
          <mxGeometry x="123.30999999999999" y="520" width="70" height="40" as="geometry" />
        </mxCell>
        <mxCell id="EeWhgjesMD8h8m6Kg0Re-91" value="&lt;font style=&quot;font-size: 18px;&quot;&gt;rank1&lt;/font&gt;" style="text;html=1;align=center;verticalAlign=middle;resizable=0;points=[];autosize=1;strokeColor=none;fillColor=none;" vertex="1" parent="1">
          <mxGeometry x="193.31" y="520" width="70" height="40" as="geometry" />
        </mxCell>
        <mxCell id="EeWhgjesMD8h8m6Kg0Re-92" value="&lt;font style=&quot;font-size: 18px;&quot;&gt;rank2&lt;/font&gt;" style="text;html=1;align=center;verticalAlign=middle;resizable=0;points=[];autosize=1;strokeColor=none;fillColor=none;" vertex="1" parent="1">
          <mxGeometry x="263.30999999999995" y="520" width="70" height="40" as="geometry" />
        </mxCell>
        <mxCell id="EeWhgjesMD8h8m6Kg0Re-93" value="&lt;font style=&quot;font-size: 18px;&quot;&gt;rank3&lt;/font&gt;" style="text;html=1;align=center;verticalAlign=middle;resizable=0;points=[];autosize=1;strokeColor=none;fillColor=none;" vertex="1" parent="1">
          <mxGeometry x="333.30999999999995" y="520" width="70" height="40" as="geometry" />
        </mxCell>
        <mxCell id="EeWhgjesMD8h8m6Kg0Re-94" value="" style="endArrow=none;dashed=1;html=1;rounded=0;" edge="1" parent="1">
          <mxGeometry width="50" height="50" relative="1" as="geometry">
            <mxPoint x="333.30999999999995" y="725" as="sourcePoint" />
            <mxPoint x="333.30999999999995" y="565" as="targetPoint" />
          </mxGeometry>
        </mxCell>
        <mxCell id="EeWhgjesMD8h8m6Kg0Re-95" value="" style="endArrow=none;dashed=1;html=1;rounded=0;" edge="1" parent="1">
          <mxGeometry width="50" height="50" relative="1" as="geometry">
            <mxPoint x="403.30999999999995" y="725" as="sourcePoint" />
            <mxPoint x="403.30999999999995" y="565" as="targetPoint" />
          </mxGeometry>
        </mxCell>
        <mxCell id="EeWhgjesMD8h8m6Kg0Re-191" style="edgeStyle=orthogonalEdgeStyle;rounded=0;orthogonalLoop=1;jettySize=auto;html=1;exitX=1;exitY=0.5;exitDx=0;exitDy=0;entryX=0;entryY=0.5;entryDx=0;entryDy=0;" edge="1" parent="1" source="EeWhgjesMD8h8m6Kg0Re-96" target="EeWhgjesMD8h8m6Kg0Re-100">
          <mxGeometry relative="1" as="geometry" />
        </mxCell>
        <mxCell id="EeWhgjesMD8h8m6Kg0Re-96" value="A0" style="rounded=0;whiteSpace=wrap;html=1;fillColor=#e1d5e7;strokeColor=#9673a6;" vertex="1" parent="1">
          <mxGeometry x="133.31" y="575" width="50" height="30" as="geometry" />
        </mxCell>
        <mxCell id="EeWhgjesMD8h8m6Kg0Re-97" value="B0" style="rounded=0;whiteSpace=wrap;html=1;fillColor=#e1d5e7;strokeColor=#9673a6;" vertex="1" parent="1">
          <mxGeometry x="133.31" y="615" width="50" height="30" as="geometry" />
        </mxCell>
        <mxCell id="EeWhgjesMD8h8m6Kg0Re-98" value="C0" style="rounded=0;whiteSpace=wrap;html=1;fillColor=#e1d5e7;strokeColor=#9673a6;" vertex="1" parent="1">
          <mxGeometry x="133.31" y="655" width="50" height="30" as="geometry" />
        </mxCell>
        <mxCell id="EeWhgjesMD8h8m6Kg0Re-99" value="&lt;font style=&quot;color: light-dark(rgb(255, 0, 0), rgb(237, 237, 237));&quot;&gt;D0+D3&lt;/font&gt;" style="rounded=0;whiteSpace=wrap;html=1;fillColor=#e1d5e7;strokeColor=#9673a6;" vertex="1" parent="1">
          <mxGeometry x="133.31" y="695" width="50" height="30" as="geometry" />
        </mxCell>
        <mxCell id="EeWhgjesMD8h8m6Kg0Re-100" value="&lt;font style=&quot;color: rgb(255, 0, 0);&quot;&gt;A0+A1&lt;/font&gt;" style="rounded=0;whiteSpace=wrap;html=1;fillColor=#fff2cc;strokeColor=#d6b656;" vertex="1" parent="1">
          <mxGeometry x="203.31" y="575" width="50" height="30" as="geometry" />
        </mxCell>
        <mxCell id="EeWhgjesMD8h8m6Kg0Re-192" style="edgeStyle=orthogonalEdgeStyle;rounded=0;orthogonalLoop=1;jettySize=auto;html=1;exitX=1;exitY=0.5;exitDx=0;exitDy=0;entryX=0;entryY=0.5;entryDx=0;entryDy=0;" edge="1" parent="1" source="EeWhgjesMD8h8m6Kg0Re-101" target="EeWhgjesMD8h8m6Kg0Re-105">
          <mxGeometry relative="1" as="geometry" />
        </mxCell>
        <mxCell id="EeWhgjesMD8h8m6Kg0Re-101" value="B1" style="rounded=0;whiteSpace=wrap;html=1;fillColor=#fff2cc;strokeColor=#d6b656;" vertex="1" parent="1">
          <mxGeometry x="203.31" y="615" width="50" height="30" as="geometry" />
        </mxCell>
        <mxCell id="EeWhgjesMD8h8m6Kg0Re-102" value="C1" style="rounded=0;whiteSpace=wrap;html=1;fillColor=#fff2cc;strokeColor=#d6b656;" vertex="1" parent="1">
          <mxGeometry x="203.31" y="655" width="50" height="30" as="geometry" />
        </mxCell>
        <mxCell id="EeWhgjesMD8h8m6Kg0Re-103" value="D1" style="rounded=0;whiteSpace=wrap;html=1;fillColor=#fff2cc;strokeColor=#d6b656;" vertex="1" parent="1">
          <mxGeometry x="203.31" y="695" width="50" height="30" as="geometry" />
        </mxCell>
        <mxCell id="EeWhgjesMD8h8m6Kg0Re-104" value="A2" style="rounded=0;whiteSpace=wrap;html=1;fillColor=#f8cecc;strokeColor=#b85450;" vertex="1" parent="1">
          <mxGeometry x="273.30999999999995" y="575" width="50" height="30" as="geometry" />
        </mxCell>
        <mxCell id="EeWhgjesMD8h8m6Kg0Re-105" value="&lt;font style=&quot;color: light-dark(rgb(251, 9, 9), rgb(237, 237, 237));&quot;&gt;B1+B2&lt;/font&gt;" style="rounded=0;whiteSpace=wrap;html=1;fillColor=#f8cecc;strokeColor=#b85450;" vertex="1" parent="1">
          <mxGeometry x="273.30999999999995" y="615" width="50" height="30" as="geometry" />
        </mxCell>
        <mxCell id="EeWhgjesMD8h8m6Kg0Re-194" style="edgeStyle=orthogonalEdgeStyle;rounded=0;orthogonalLoop=1;jettySize=auto;html=1;exitX=1;exitY=0.5;exitDx=0;exitDy=0;entryX=0;entryY=0.5;entryDx=0;entryDy=0;" edge="1" parent="1" source="EeWhgjesMD8h8m6Kg0Re-106" target="EeWhgjesMD8h8m6Kg0Re-110">
          <mxGeometry relative="1" as="geometry" />
        </mxCell>
        <mxCell id="EeWhgjesMD8h8m6Kg0Re-106" value="C2" style="rounded=0;whiteSpace=wrap;html=1;fillColor=#f8cecc;strokeColor=#b85450;" vertex="1" parent="1">
          <mxGeometry x="273.30999999999995" y="655" width="50" height="30" as="geometry" />
        </mxCell>
        <mxCell id="EeWhgjesMD8h8m6Kg0Re-107" value="D2" style="rounded=0;whiteSpace=wrap;html=1;fillColor=#f8cecc;strokeColor=#b85450;" vertex="1" parent="1">
          <mxGeometry x="273.30999999999995" y="695" width="50" height="30" as="geometry" />
        </mxCell>
        <mxCell id="EeWhgjesMD8h8m6Kg0Re-108" value="A3" style="rounded=0;whiteSpace=wrap;html=1;fillColor=#d5e8d4;strokeColor=#82b366;" vertex="1" parent="1">
          <mxGeometry x="343.30999999999995" y="575" width="50" height="30" as="geometry" />
        </mxCell>
        <mxCell id="EeWhgjesMD8h8m6Kg0Re-109" value="B3" style="rounded=0;whiteSpace=wrap;html=1;fillColor=#d5e8d4;strokeColor=#82b366;" vertex="1" parent="1">
          <mxGeometry x="343.30999999999995" y="615" width="50" height="30" as="geometry" />
        </mxCell>
        <mxCell id="EeWhgjesMD8h8m6Kg0Re-110" value="&lt;font style=&quot;color: light-dark(rgb(255, 0, 0), rgb(237, 237, 237));&quot;&gt;C2+C3&lt;/font&gt;" style="rounded=0;whiteSpace=wrap;html=1;fillColor=#d5e8d4;strokeColor=#82b366;" vertex="1" parent="1">
          <mxGeometry x="343.30999999999995" y="655" width="50" height="30" as="geometry" />
        </mxCell>
        <mxCell id="EeWhgjesMD8h8m6Kg0Re-195" style="edgeStyle=orthogonalEdgeStyle;rounded=0;orthogonalLoop=1;jettySize=auto;html=1;exitX=1;exitY=0.5;exitDx=0;exitDy=0;entryX=0;entryY=0.5;entryDx=0;entryDy=0;" edge="1" parent="1" source="EeWhgjesMD8h8m6Kg0Re-111" target="EeWhgjesMD8h8m6Kg0Re-99">
          <mxGeometry relative="1" as="geometry">
            <Array as="points">
              <mxPoint x="413" y="710" />
              <mxPoint x="413" y="745" />
              <mxPoint x="112.99999999999999" y="745" />
              <mxPoint x="112.99999999999999" y="710" />
            </Array>
          </mxGeometry>
        </mxCell>
        <mxCell id="EeWhgjesMD8h8m6Kg0Re-111" value="D3" style="rounded=0;whiteSpace=wrap;html=1;fillColor=#d5e8d4;strokeColor=#82b366;" vertex="1" parent="1">
          <mxGeometry x="343.30999999999995" y="695" width="50" height="30" as="geometry" />
        </mxCell>
        <mxCell id="EeWhgjesMD8h8m6Kg0Re-112" value="&lt;font style=&quot;font-size: 18px;&quot;&gt;&lt;b&gt;step0&lt;/b&gt;&lt;/font&gt;" style="text;html=1;align=center;verticalAlign=middle;resizable=0;points=[];autosize=1;strokeColor=none;fillColor=none;" vertex="1" parent="1">
          <mxGeometry x="224.69" y="750" width="70" height="40" as="geometry" />
        </mxCell>
        <mxCell id="EeWhgjesMD8h8m6Kg0Re-113" value="" style="endArrow=none;dashed=1;html=1;rounded=0;" edge="1" parent="1">
          <mxGeometry width="50" height="50" relative="1" as="geometry">
            <mxPoint x="480.30999999999995" y="725" as="sourcePoint" />
            <mxPoint x="480.30999999999995" y="565" as="targetPoint" />
          </mxGeometry>
        </mxCell>
        <mxCell id="EeWhgjesMD8h8m6Kg0Re-114" value="" style="endArrow=none;dashed=1;html=1;rounded=0;" edge="1" parent="1">
          <mxGeometry width="50" height="50" relative="1" as="geometry">
            <mxPoint x="550.31" y="725" as="sourcePoint" />
            <mxPoint x="550.31" y="565" as="targetPoint" />
          </mxGeometry>
        </mxCell>
        <mxCell id="EeWhgjesMD8h8m6Kg0Re-115" value="" style="endArrow=none;dashed=1;html=1;rounded=0;" edge="1" parent="1">
          <mxGeometry width="50" height="50" relative="1" as="geometry">
            <mxPoint x="620.31" y="725" as="sourcePoint" />
            <mxPoint x="620.31" y="565" as="targetPoint" />
          </mxGeometry>
        </mxCell>
        <mxCell id="EeWhgjesMD8h8m6Kg0Re-116" value="&lt;font style=&quot;font-size: 18px;&quot;&gt;rank0&lt;/font&gt;" style="text;html=1;align=center;verticalAlign=middle;resizable=0;points=[];autosize=1;strokeColor=none;fillColor=none;" vertex="1" parent="1">
          <mxGeometry x="480.30999999999995" y="520" width="70" height="40" as="geometry" />
        </mxCell>
        <mxCell id="EeWhgjesMD8h8m6Kg0Re-117" value="&lt;font style=&quot;font-size: 18px;&quot;&gt;rank1&lt;/font&gt;" style="text;html=1;align=center;verticalAlign=middle;resizable=0;points=[];autosize=1;strokeColor=none;fillColor=none;" vertex="1" parent="1">
          <mxGeometry x="550.31" y="520" width="70" height="40" as="geometry" />
        </mxCell>
        <mxCell id="EeWhgjesMD8h8m6Kg0Re-118" value="&lt;font style=&quot;font-size: 18px;&quot;&gt;rank2&lt;/font&gt;" style="text;html=1;align=center;verticalAlign=middle;resizable=0;points=[];autosize=1;strokeColor=none;fillColor=none;" vertex="1" parent="1">
          <mxGeometry x="620.31" y="520" width="70" height="40" as="geometry" />
        </mxCell>
        <mxCell id="EeWhgjesMD8h8m6Kg0Re-119" value="&lt;font style=&quot;font-size: 18px;&quot;&gt;rank3&lt;/font&gt;" style="text;html=1;align=center;verticalAlign=middle;resizable=0;points=[];autosize=1;strokeColor=none;fillColor=none;" vertex="1" parent="1">
          <mxGeometry x="690.31" y="520" width="70" height="40" as="geometry" />
        </mxCell>
        <mxCell id="EeWhgjesMD8h8m6Kg0Re-120" value="" style="endArrow=none;dashed=1;html=1;rounded=0;" edge="1" parent="1">
          <mxGeometry width="50" height="50" relative="1" as="geometry">
            <mxPoint x="690.31" y="725" as="sourcePoint" />
            <mxPoint x="690.31" y="565" as="targetPoint" />
          </mxGeometry>
        </mxCell>
        <mxCell id="EeWhgjesMD8h8m6Kg0Re-121" value="" style="endArrow=none;dashed=1;html=1;rounded=0;" edge="1" parent="1">
          <mxGeometry width="50" height="50" relative="1" as="geometry">
            <mxPoint x="760.31" y="725" as="sourcePoint" />
            <mxPoint x="760.31" y="565" as="targetPoint" />
          </mxGeometry>
        </mxCell>
        <mxCell id="EeWhgjesMD8h8m6Kg0Re-122" value="A0" style="rounded=0;whiteSpace=wrap;html=1;fillColor=#e1d5e7;strokeColor=#9673a6;" vertex="1" parent="1">
          <mxGeometry x="490.30999999999995" y="575" width="50" height="30" as="geometry" />
        </mxCell>
        <mxCell id="EeWhgjesMD8h8m6Kg0Re-123" value="B0" style="rounded=0;whiteSpace=wrap;html=1;fillColor=#e1d5e7;strokeColor=#9673a6;" vertex="1" parent="1">
          <mxGeometry x="490.30999999999995" y="615" width="50" height="30" as="geometry" />
        </mxCell>
        <mxCell id="EeWhgjesMD8h8m6Kg0Re-124" value="&lt;font style=&quot;color: light-dark(rgb(255, 10, 10), rgb(237, 237, 237)); font-size: 10px;&quot;&gt;C0+C2+C3&lt;/font&gt;" style="rounded=0;whiteSpace=wrap;html=1;fillColor=#e1d5e7;strokeColor=#9673a6;" vertex="1" parent="1">
          <mxGeometry x="490.30999999999995" y="655" width="50" height="30" as="geometry" />
        </mxCell>
        <mxCell id="EeWhgjesMD8h8m6Kg0Re-199" style="edgeStyle=orthogonalEdgeStyle;rounded=0;orthogonalLoop=1;jettySize=auto;html=1;exitX=1;exitY=0.5;exitDx=0;exitDy=0;entryX=0;entryY=0.5;entryDx=0;entryDy=0;" edge="1" parent="1" source="EeWhgjesMD8h8m6Kg0Re-125" target="EeWhgjesMD8h8m6Kg0Re-129">
          <mxGeometry relative="1" as="geometry" />
        </mxCell>
        <mxCell id="EeWhgjesMD8h8m6Kg0Re-125" value="D0+D3" style="rounded=0;whiteSpace=wrap;html=1;fillColor=#e1d5e7;strokeColor=#9673a6;" vertex="1" parent="1">
          <mxGeometry x="490.30999999999995" y="695" width="50" height="30" as="geometry" />
        </mxCell>
        <mxCell id="EeWhgjesMD8h8m6Kg0Re-196" style="edgeStyle=orthogonalEdgeStyle;rounded=0;orthogonalLoop=1;jettySize=auto;html=1;exitX=1;exitY=0.5;exitDx=0;exitDy=0;entryX=0;entryY=0.5;entryDx=0;entryDy=0;" edge="1" parent="1" source="EeWhgjesMD8h8m6Kg0Re-126" target="EeWhgjesMD8h8m6Kg0Re-130">
          <mxGeometry relative="1" as="geometry" />
        </mxCell>
        <mxCell id="EeWhgjesMD8h8m6Kg0Re-126" value="A0+A1" style="rounded=0;whiteSpace=wrap;html=1;fillColor=#fff2cc;strokeColor=#d6b656;" vertex="1" parent="1">
          <mxGeometry x="560.31" y="575" width="50" height="30" as="geometry" />
        </mxCell>
        <mxCell id="EeWhgjesMD8h8m6Kg0Re-127" value="B1" style="rounded=0;whiteSpace=wrap;html=1;fillColor=#fff2cc;strokeColor=#d6b656;" vertex="1" parent="1">
          <mxGeometry x="560.31" y="615" width="50" height="30" as="geometry" />
        </mxCell>
        <mxCell id="EeWhgjesMD8h8m6Kg0Re-128" value="C1" style="rounded=0;whiteSpace=wrap;html=1;fillColor=#fff2cc;strokeColor=#d6b656;" vertex="1" parent="1">
          <mxGeometry x="560.31" y="655" width="50" height="30" as="geometry" />
        </mxCell>
        <mxCell id="EeWhgjesMD8h8m6Kg0Re-129" value="&lt;font style=&quot;font-size: 10px; color: rgb(255, 0, 0);&quot;&gt;D0+D1+D3&lt;/font&gt;" style="rounded=0;whiteSpace=wrap;html=1;fillColor=#fff2cc;strokeColor=#d6b656;" vertex="1" parent="1">
          <mxGeometry x="560.31" y="695" width="50" height="30" as="geometry" />
        </mxCell>
        <mxCell id="EeWhgjesMD8h8m6Kg0Re-130" value="&lt;font style=&quot;font-size: 10px; color: light-dark(rgb(250, 0, 0), rgb(237, 237, 237));&quot;&gt;A0+A1+A2&lt;/font&gt;" style="rounded=0;whiteSpace=wrap;html=1;fillColor=#f8cecc;strokeColor=#b85450;" vertex="1" parent="1">
          <mxGeometry x="630.31" y="575" width="50" height="30" as="geometry" />
        </mxCell>
        <mxCell id="EeWhgjesMD8h8m6Kg0Re-197" style="edgeStyle=orthogonalEdgeStyle;rounded=0;orthogonalLoop=1;jettySize=auto;html=1;exitX=1;exitY=0.5;exitDx=0;exitDy=0;entryX=0;entryY=0.5;entryDx=0;entryDy=0;" edge="1" parent="1" source="EeWhgjesMD8h8m6Kg0Re-131" target="EeWhgjesMD8h8m6Kg0Re-135">
          <mxGeometry relative="1" as="geometry" />
        </mxCell>
        <mxCell id="EeWhgjesMD8h8m6Kg0Re-131" value="B1+B2" style="rounded=0;whiteSpace=wrap;html=1;fillColor=#f8cecc;strokeColor=#b85450;" vertex="1" parent="1">
          <mxGeometry x="630.31" y="615" width="50" height="30" as="geometry" />
        </mxCell>
        <mxCell id="EeWhgjesMD8h8m6Kg0Re-132" value="C2" style="rounded=0;whiteSpace=wrap;html=1;fillColor=#f8cecc;strokeColor=#b85450;" vertex="1" parent="1">
          <mxGeometry x="630.31" y="655" width="50" height="30" as="geometry" />
        </mxCell>
        <mxCell id="EeWhgjesMD8h8m6Kg0Re-133" value="D2" style="rounded=0;whiteSpace=wrap;html=1;fillColor=#f8cecc;strokeColor=#b85450;" vertex="1" parent="1">
          <mxGeometry x="630.31" y="695" width="50" height="30" as="geometry" />
        </mxCell>
        <mxCell id="EeWhgjesMD8h8m6Kg0Re-134" value="A3" style="rounded=0;whiteSpace=wrap;html=1;fillColor=#d5e8d4;strokeColor=#82b366;" vertex="1" parent="1">
          <mxGeometry x="700.31" y="575" width="50" height="30" as="geometry" />
        </mxCell>
        <mxCell id="EeWhgjesMD8h8m6Kg0Re-135" value="&lt;font style=&quot;font-size: 10px; color: light-dark(rgb(255, 0, 0), rgb(237, 237, 237));&quot;&gt;B1+B2+B3&lt;/font&gt;" style="rounded=0;whiteSpace=wrap;html=1;fillColor=#d5e8d4;strokeColor=#82b366;" vertex="1" parent="1">
          <mxGeometry x="700.31" y="615" width="50" height="30" as="geometry" />
        </mxCell>
        <mxCell id="EeWhgjesMD8h8m6Kg0Re-198" style="edgeStyle=orthogonalEdgeStyle;rounded=0;orthogonalLoop=1;jettySize=auto;html=1;exitX=1;exitY=0.5;exitDx=0;exitDy=0;entryX=0;entryY=0.5;entryDx=0;entryDy=0;" edge="1" parent="1" source="EeWhgjesMD8h8m6Kg0Re-136" target="EeWhgjesMD8h8m6Kg0Re-124">
          <mxGeometry relative="1" as="geometry">
            <Array as="points">
              <mxPoint x="770" y="670" />
              <mxPoint x="770" y="690" />
              <mxPoint x="470" y="690" />
              <mxPoint x="470" y="670" />
            </Array>
          </mxGeometry>
        </mxCell>
        <mxCell id="EeWhgjesMD8h8m6Kg0Re-136" value="C2+C3" style="rounded=0;whiteSpace=wrap;html=1;fillColor=#d5e8d4;strokeColor=#82b366;" vertex="1" parent="1">
          <mxGeometry x="700.31" y="655" width="50" height="30" as="geometry" />
        </mxCell>
        <mxCell id="EeWhgjesMD8h8m6Kg0Re-137" value="D3" style="rounded=0;whiteSpace=wrap;html=1;fillColor=#d5e8d4;strokeColor=#82b366;" vertex="1" parent="1">
          <mxGeometry x="700.31" y="695" width="50" height="30" as="geometry" />
        </mxCell>
        <mxCell id="EeWhgjesMD8h8m6Kg0Re-138" value="&lt;font style=&quot;font-size: 18px;&quot;&gt;&lt;b&gt;step1&lt;/b&gt;&lt;/font&gt;" style="text;html=1;align=center;verticalAlign=middle;resizable=0;points=[];autosize=1;strokeColor=none;fillColor=none;" vertex="1" parent="1">
          <mxGeometry x="590" y="750" width="70" height="40" as="geometry" />
        </mxCell>
        <mxCell id="EeWhgjesMD8h8m6Kg0Re-164" value="&lt;font style=&quot;font-size: 18px;&quot;&gt;&lt;b&gt;step2&lt;/b&gt;&lt;/font&gt;" style="text;html=1;align=center;verticalAlign=middle;resizable=0;points=[];autosize=1;strokeColor=none;fillColor=none;" vertex="1" parent="1">
          <mxGeometry x="224.69000000000005" y="1045" width="70" height="40" as="geometry" />
        </mxCell>
        <mxCell id="EeWhgjesMD8h8m6Kg0Re-225" value="" style="endArrow=none;dashed=1;html=1;rounded=0;" edge="1" parent="1">
          <mxGeometry width="50" height="50" relative="1" as="geometry">
            <mxPoint x="120.00000000000011" y="1035" as="sourcePoint" />
            <mxPoint x="120.00000000000011" y="875" as="targetPoint" />
          </mxGeometry>
        </mxCell>
        <mxCell id="EeWhgjesMD8h8m6Kg0Re-226" value="" style="endArrow=none;dashed=1;html=1;rounded=0;" edge="1" parent="1">
          <mxGeometry width="50" height="50" relative="1" as="geometry">
            <mxPoint x="190" y="1035" as="sourcePoint" />
            <mxPoint x="190" y="875" as="targetPoint" />
          </mxGeometry>
        </mxCell>
        <mxCell id="EeWhgjesMD8h8m6Kg0Re-227" value="" style="endArrow=none;dashed=1;html=1;rounded=0;" edge="1" parent="1">
          <mxGeometry width="50" height="50" relative="1" as="geometry">
            <mxPoint x="260.0000000000001" y="1035" as="sourcePoint" />
            <mxPoint x="260.0000000000001" y="875" as="targetPoint" />
          </mxGeometry>
        </mxCell>
        <mxCell id="EeWhgjesMD8h8m6Kg0Re-228" value="&lt;font style=&quot;font-size: 18px;&quot;&gt;rank0&lt;/font&gt;" style="text;html=1;align=center;verticalAlign=middle;resizable=0;points=[];autosize=1;strokeColor=none;fillColor=none;" vertex="1" parent="1">
          <mxGeometry x="120.00000000000011" y="830" width="70" height="40" as="geometry" />
        </mxCell>
        <mxCell id="EeWhgjesMD8h8m6Kg0Re-229" value="&lt;font style=&quot;font-size: 18px;&quot;&gt;rank1&lt;/font&gt;" style="text;html=1;align=center;verticalAlign=middle;resizable=0;points=[];autosize=1;strokeColor=none;fillColor=none;" vertex="1" parent="1">
          <mxGeometry x="190" y="830" width="70" height="40" as="geometry" />
        </mxCell>
        <mxCell id="EeWhgjesMD8h8m6Kg0Re-230" value="&lt;font style=&quot;font-size: 18px;&quot;&gt;rank2&lt;/font&gt;" style="text;html=1;align=center;verticalAlign=middle;resizable=0;points=[];autosize=1;strokeColor=none;fillColor=none;" vertex="1" parent="1">
          <mxGeometry x="260.0000000000001" y="830" width="70" height="40" as="geometry" />
        </mxCell>
        <mxCell id="EeWhgjesMD8h8m6Kg0Re-231" value="&lt;font style=&quot;font-size: 18px;&quot;&gt;rank3&lt;/font&gt;" style="text;html=1;align=center;verticalAlign=middle;resizable=0;points=[];autosize=1;strokeColor=none;fillColor=none;" vertex="1" parent="1">
          <mxGeometry x="330" y="830" width="70" height="40" as="geometry" />
        </mxCell>
        <mxCell id="EeWhgjesMD8h8m6Kg0Re-232" value="" style="endArrow=none;dashed=1;html=1;rounded=0;" edge="1" parent="1">
          <mxGeometry width="50" height="50" relative="1" as="geometry">
            <mxPoint x="330" y="1035" as="sourcePoint" />
            <mxPoint x="330" y="875" as="targetPoint" />
          </mxGeometry>
        </mxCell>
        <mxCell id="EeWhgjesMD8h8m6Kg0Re-233" value="" style="endArrow=none;dashed=1;html=1;rounded=0;" edge="1" parent="1">
          <mxGeometry width="50" height="50" relative="1" as="geometry">
            <mxPoint x="400" y="1035" as="sourcePoint" />
            <mxPoint x="400" y="875" as="targetPoint" />
          </mxGeometry>
        </mxCell>
        <mxCell id="EeWhgjesMD8h8m6Kg0Re-234" value="A0" style="rounded=0;whiteSpace=wrap;html=1;fillColor=#e1d5e7;strokeColor=#9673a6;" vertex="1" parent="1">
          <mxGeometry x="130.0000000000001" y="885" width="50" height="30" as="geometry" />
        </mxCell>
        <mxCell id="EeWhgjesMD8h8m6Kg0Re-235" value="&lt;span style=&quot;color: rgb(13, 12, 12); font-size: 10px;&quot;&gt;B0+B1&lt;/span&gt;&lt;div&gt;&lt;span style=&quot;color: rgb(13, 12, 12); font-size: 10px;&quot;&gt;+B2&lt;/span&gt;&lt;span style=&quot;color: rgb(13, 12, 12); font-size: 10px; background-color: transparent;&quot;&gt;+B3&lt;/span&gt;&lt;/div&gt;" style="rounded=0;whiteSpace=wrap;html=1;fillColor=#e1d5e7;strokeColor=#9673a6;" vertex="1" parent="1">
          <mxGeometry x="130.0000000000001" y="925" width="50" height="30" as="geometry" />
        </mxCell>
        <mxCell id="EeWhgjesMD8h8m6Kg0Re-256" style="edgeStyle=orthogonalEdgeStyle;rounded=0;orthogonalLoop=1;jettySize=auto;html=1;exitX=1;exitY=0.5;exitDx=0;exitDy=0;entryX=0;entryY=0.5;entryDx=0;entryDy=0;" edge="1" parent="1" source="EeWhgjesMD8h8m6Kg0Re-236" target="EeWhgjesMD8h8m6Kg0Re-242">
          <mxGeometry relative="1" as="geometry" />
        </mxCell>
        <mxCell id="EeWhgjesMD8h8m6Kg0Re-236" value="&lt;font style=&quot;font-size: 10px; color: light-dark(rgb(10, 10, 10), rgb(237, 237, 237));&quot;&gt;C0+C2+C3&lt;/font&gt;" style="rounded=0;whiteSpace=wrap;html=1;fillColor=#e1d5e7;strokeColor=#9673a6;" vertex="1" parent="1">
          <mxGeometry x="130.0000000000001" y="965" width="50" height="30" as="geometry" />
        </mxCell>
        <mxCell id="EeWhgjesMD8h8m6Kg0Re-238" value="D0+D3" style="rounded=0;whiteSpace=wrap;html=1;fillColor=#e1d5e7;strokeColor=#9673a6;" vertex="1" parent="1">
          <mxGeometry x="130.0000000000001" y="1005" width="50" height="30" as="geometry" />
        </mxCell>
        <mxCell id="EeWhgjesMD8h8m6Kg0Re-240" value="A0+A1" style="rounded=0;whiteSpace=wrap;html=1;fillColor=#fff2cc;strokeColor=#d6b656;" vertex="1" parent="1">
          <mxGeometry x="200" y="885" width="50" height="30" as="geometry" />
        </mxCell>
        <mxCell id="EeWhgjesMD8h8m6Kg0Re-241" value="B1" style="rounded=0;whiteSpace=wrap;html=1;fillColor=#fff2cc;strokeColor=#d6b656;" vertex="1" parent="1">
          <mxGeometry x="200" y="925" width="50" height="30" as="geometry" />
        </mxCell>
        <mxCell id="EeWhgjesMD8h8m6Kg0Re-242" value="&lt;span style=&quot;color: rgb(10, 10, 10); font-size: 10px;&quot;&gt;C0+C1&lt;/span&gt;&lt;div&gt;&lt;span style=&quot;color: rgb(10, 10, 10); font-size: 10px;&quot;&gt;+C2&lt;/span&gt;&lt;span style=&quot;color: rgb(10, 10, 10); font-size: 10px; background-color: transparent;&quot;&gt;+C3&lt;/span&gt;&lt;/div&gt;" style="rounded=0;whiteSpace=wrap;html=1;fillColor=#fff2cc;strokeColor=#d6b656;" vertex="1" parent="1">
          <mxGeometry x="200" y="965" width="50" height="30" as="geometry" />
        </mxCell>
        <mxCell id="EeWhgjesMD8h8m6Kg0Re-257" style="edgeStyle=orthogonalEdgeStyle;rounded=0;orthogonalLoop=1;jettySize=auto;html=1;exitX=1;exitY=0.5;exitDx=0;exitDy=0;entryX=0;entryY=0.5;entryDx=0;entryDy=0;" edge="1" parent="1" source="EeWhgjesMD8h8m6Kg0Re-243" target="EeWhgjesMD8h8m6Kg0Re-248">
          <mxGeometry relative="1" as="geometry" />
        </mxCell>
        <mxCell id="EeWhgjesMD8h8m6Kg0Re-243" value="&lt;font style=&quot;font-size: 10px; color: light-dark(rgb(8, 8, 8), rgb(255, 144, 144));&quot;&gt;D0+D1+D3&lt;/font&gt;" style="rounded=0;whiteSpace=wrap;html=1;fillColor=#fff2cc;strokeColor=#d6b656;" vertex="1" parent="1">
          <mxGeometry x="200" y="1005" width="50" height="30" as="geometry" />
        </mxCell>
        <mxCell id="EeWhgjesMD8h8m6Kg0Re-254" style="edgeStyle=orthogonalEdgeStyle;rounded=0;orthogonalLoop=1;jettySize=auto;html=1;exitX=1;exitY=0.5;exitDx=0;exitDy=0;entryX=0;entryY=0.5;entryDx=0;entryDy=0;" edge="1" parent="1" source="EeWhgjesMD8h8m6Kg0Re-244" target="EeWhgjesMD8h8m6Kg0Re-249">
          <mxGeometry relative="1" as="geometry" />
        </mxCell>
        <mxCell id="EeWhgjesMD8h8m6Kg0Re-244" value="&lt;font style=&quot;font-size: 10px; color: light-dark(rgb(8, 8, 8), rgb(237, 237, 237));&quot;&gt;A0+A1+A2&lt;/font&gt;" style="rounded=0;whiteSpace=wrap;html=1;fillColor=#f8cecc;strokeColor=#b85450;" vertex="1" parent="1">
          <mxGeometry x="270" y="885" width="50" height="30" as="geometry" />
        </mxCell>
        <mxCell id="EeWhgjesMD8h8m6Kg0Re-246" value="B1+B2" style="rounded=0;whiteSpace=wrap;html=1;fillColor=#f8cecc;strokeColor=#b85450;" vertex="1" parent="1">
          <mxGeometry x="270" y="925" width="50" height="30" as="geometry" />
        </mxCell>
        <mxCell id="EeWhgjesMD8h8m6Kg0Re-247" value="C2" style="rounded=0;whiteSpace=wrap;html=1;fillColor=#f8cecc;strokeColor=#b85450;" vertex="1" parent="1">
          <mxGeometry x="270" y="965" width="50" height="30" as="geometry" />
        </mxCell>
        <mxCell id="EeWhgjesMD8h8m6Kg0Re-248" value="&lt;span style=&quot;color: rgb(8, 8, 8); font-size: 10px;&quot;&gt;D0+D1&lt;/span&gt;&lt;div&gt;&lt;span style=&quot;color: rgb(8, 8, 8); font-size: 10px;&quot;&gt;+D2+D3&lt;/span&gt;&lt;/div&gt;" style="rounded=0;whiteSpace=wrap;html=1;fillColor=#f8cecc;strokeColor=#b85450;" vertex="1" parent="1">
          <mxGeometry x="270" y="1005" width="50" height="30" as="geometry" />
        </mxCell>
        <mxCell id="EeWhgjesMD8h8m6Kg0Re-249" value="&lt;span style=&quot;color: rgb(8, 8, 8); font-size: 10px;&quot;&gt;A0+A1&lt;/span&gt;&lt;div&gt;&lt;span style=&quot;color: rgb(8, 8, 8); font-size: 10px;&quot;&gt;+A2+A3&lt;/span&gt;&lt;/div&gt;" style="rounded=0;whiteSpace=wrap;html=1;fillColor=#d5e8d4;strokeColor=#82b366;" vertex="1" parent="1">
          <mxGeometry x="340" y="885" width="50" height="30" as="geometry" />
        </mxCell>
        <mxCell id="EeWhgjesMD8h8m6Kg0Re-255" style="edgeStyle=orthogonalEdgeStyle;rounded=0;orthogonalLoop=1;jettySize=auto;html=1;exitX=1;exitY=0.5;exitDx=0;exitDy=0;entryX=0;entryY=0.5;entryDx=0;entryDy=0;" edge="1" parent="1" source="EeWhgjesMD8h8m6Kg0Re-250" target="EeWhgjesMD8h8m6Kg0Re-235">
          <mxGeometry relative="1" as="geometry">
            <Array as="points">
              <mxPoint x="410" y="940" />
              <mxPoint x="410" y="960" />
              <mxPoint x="110" y="960" />
              <mxPoint x="110" y="940" />
            </Array>
          </mxGeometry>
        </mxCell>
        <mxCell id="EeWhgjesMD8h8m6Kg0Re-250" value="&lt;font style=&quot;font-size: 10px; color: light-dark(rgb(13, 12, 12), rgb(237, 237, 237));&quot;&gt;B1+B2+B3&lt;/font&gt;" style="rounded=0;whiteSpace=wrap;html=1;fillColor=#d5e8d4;strokeColor=#82b366;" vertex="1" parent="1">
          <mxGeometry x="340" y="925" width="50" height="30" as="geometry" />
        </mxCell>
        <mxCell id="EeWhgjesMD8h8m6Kg0Re-252" value="C2+C3" style="rounded=0;whiteSpace=wrap;html=1;fillColor=#d5e8d4;strokeColor=#82b366;" vertex="1" parent="1">
          <mxGeometry x="340" y="965" width="50" height="30" as="geometry" />
        </mxCell>
        <mxCell id="EeWhgjesMD8h8m6Kg0Re-253" value="D3" style="rounded=0;whiteSpace=wrap;html=1;fillColor=#d5e8d4;strokeColor=#82b366;" vertex="1" parent="1">
          <mxGeometry x="340" y="1005" width="50" height="30" as="geometry" />
        </mxCell>
        <mxCell id="EeWhgjesMD8h8m6Kg0Re-258" value="&lt;span style=&quot;font-size: 18px;&quot;&gt;&lt;b&gt;终态&lt;/b&gt;&lt;/span&gt;" style="text;html=1;align=center;verticalAlign=middle;resizable=0;points=[];autosize=1;strokeColor=none;fillColor=none;" vertex="1" parent="1">
          <mxGeometry x="594.69" y="1045" width="60" height="40" as="geometry" />
        </mxCell>
        <mxCell id="EeWhgjesMD8h8m6Kg0Re-259" value="" style="endArrow=none;dashed=1;html=1;rounded=0;" edge="1" parent="1">
          <mxGeometry width="50" height="50" relative="1" as="geometry">
            <mxPoint x="485.0000000000001" y="1035" as="sourcePoint" />
            <mxPoint x="485.0000000000001" y="875" as="targetPoint" />
          </mxGeometry>
        </mxCell>
        <mxCell id="EeWhgjesMD8h8m6Kg0Re-260" value="" style="endArrow=none;dashed=1;html=1;rounded=0;" edge="1" parent="1">
          <mxGeometry width="50" height="50" relative="1" as="geometry">
            <mxPoint x="555" y="1035" as="sourcePoint" />
            <mxPoint x="555" y="875" as="targetPoint" />
          </mxGeometry>
        </mxCell>
        <mxCell id="EeWhgjesMD8h8m6Kg0Re-261" value="" style="endArrow=none;dashed=1;html=1;rounded=0;" edge="1" parent="1">
          <mxGeometry width="50" height="50" relative="1" as="geometry">
            <mxPoint x="625.0000000000001" y="1035" as="sourcePoint" />
            <mxPoint x="625.0000000000001" y="875" as="targetPoint" />
          </mxGeometry>
        </mxCell>
        <mxCell id="EeWhgjesMD8h8m6Kg0Re-262" value="&lt;font style=&quot;font-size: 18px;&quot;&gt;rank0&lt;/font&gt;" style="text;html=1;align=center;verticalAlign=middle;resizable=0;points=[];autosize=1;strokeColor=none;fillColor=none;" vertex="1" parent="1">
          <mxGeometry x="485.0000000000001" y="830" width="70" height="40" as="geometry" />
        </mxCell>
        <mxCell id="EeWhgjesMD8h8m6Kg0Re-263" value="&lt;font style=&quot;font-size: 18px;&quot;&gt;rank1&lt;/font&gt;" style="text;html=1;align=center;verticalAlign=middle;resizable=0;points=[];autosize=1;strokeColor=none;fillColor=none;" vertex="1" parent="1">
          <mxGeometry x="555" y="830" width="70" height="40" as="geometry" />
        </mxCell>
        <mxCell id="EeWhgjesMD8h8m6Kg0Re-264" value="&lt;font style=&quot;font-size: 18px;&quot;&gt;rank2&lt;/font&gt;" style="text;html=1;align=center;verticalAlign=middle;resizable=0;points=[];autosize=1;strokeColor=none;fillColor=none;" vertex="1" parent="1">
          <mxGeometry x="625.0000000000001" y="830" width="70" height="40" as="geometry" />
        </mxCell>
        <mxCell id="EeWhgjesMD8h8m6Kg0Re-265" value="&lt;font style=&quot;font-size: 18px;&quot;&gt;rank3&lt;/font&gt;" style="text;html=1;align=center;verticalAlign=middle;resizable=0;points=[];autosize=1;strokeColor=none;fillColor=none;" vertex="1" parent="1">
          <mxGeometry x="695" y="830" width="70" height="40" as="geometry" />
        </mxCell>
        <mxCell id="EeWhgjesMD8h8m6Kg0Re-266" value="" style="endArrow=none;dashed=1;html=1;rounded=0;" edge="1" parent="1">
          <mxGeometry width="50" height="50" relative="1" as="geometry">
            <mxPoint x="695" y="1035" as="sourcePoint" />
            <mxPoint x="695" y="875" as="targetPoint" />
          </mxGeometry>
        </mxCell>
        <mxCell id="EeWhgjesMD8h8m6Kg0Re-267" value="" style="endArrow=none;dashed=1;html=1;rounded=0;" edge="1" parent="1">
          <mxGeometry width="50" height="50" relative="1" as="geometry">
            <mxPoint x="765" y="1035" as="sourcePoint" />
            <mxPoint x="765" y="875" as="targetPoint" />
          </mxGeometry>
        </mxCell>
        <mxCell id="EeWhgjesMD8h8m6Kg0Re-269" value="&lt;font color=&quot;#0d0c0c&quot;&gt;&lt;b&gt;reduce(B)&lt;/b&gt;&lt;/font&gt;" style="rounded=0;whiteSpace=wrap;html=1;fillColor=#e1d5e7;strokeColor=#9673a6;" vertex="1" parent="1">
          <mxGeometry x="487.5" y="920" width="65" height="35" as="geometry" />
        </mxCell>
        <mxCell id="EeWhgjesMD8h8m6Kg0Re-275" value="&lt;b style=&quot;color: rgb(13, 12, 12);&quot;&gt;reduce(C)&lt;/b&gt;" style="rounded=0;whiteSpace=wrap;html=1;fillColor=#fff2cc;strokeColor=#d6b656;" vertex="1" parent="1">
          <mxGeometry x="557.5" y="960" width="65" height="35" as="geometry" />
        </mxCell>
        <mxCell id="EeWhgjesMD8h8m6Kg0Re-282" value="&lt;b style=&quot;color: rgb(13, 12, 12);&quot;&gt;reduce(D)&lt;/b&gt;" style="rounded=0;whiteSpace=wrap;html=1;fillColor=#f8cecc;strokeColor=#b85450;" vertex="1" parent="1">
          <mxGeometry x="627.5" y="1000" width="65" height="35" as="geometry" />
        </mxCell>
        <mxCell id="EeWhgjesMD8h8m6Kg0Re-283" value="&lt;b style=&quot;color: rgb(13, 12, 12);&quot;&gt;reduce(A)&lt;/b&gt;" style="rounded=0;whiteSpace=wrap;html=1;fillColor=#d5e8d4;strokeColor=#82b366;" vertex="1" parent="1">
          <mxGeometry x="697.5" y="880" width="65" height="35" as="geometry" />
        </mxCell>
      </root>
    </mxGraphModel>
  </diagram>
</mxfile>
